<?xml version="1.0" encoding="UTF-8" standalone="no"?>
<svg
   xmlns:dc="http://purl.org/dc/elements/1.1/"
   xmlns:cc="http://creativecommons.org/ns#"
   xmlns:rdf="http://www.w3.org/1999/02/22-rdf-syntax-ns#"
   xmlns:svg="http://www.w3.org/2000/svg"
   xmlns="http://www.w3.org/2000/svg"
   xmlns:sodipodi="http://sodipodi.sourceforge.net/DTD/sodipodi-0.dtd"
   xmlns:inkscape="http://www.inkscape.org/namespaces/inkscape"
   width="1055.9055118110236"
   height="1006.2992125984252"
   id="box"
   version="1.1"
   inkscape:version="0.91 r13725"
   sodipodi:docname="box_Joystick_140x120x70_6mm.svg">
  <defs
     id="defs4">
    <pattern
       y="0"
       x="0"
       height="6"
       width="6"
       patternUnits="userSpaceOnUse"
       id="EMFhbasepattern" />
  </defs>
  <sodipodi:namedview
     id="base"
     pagecolor="#ffffff"
     bordercolor="#666666"
     borderopacity="1.0"
     inkscape:pageopacity="0.0"
     inkscape:pageshadow="2"
     inkscape:document-units="mm"
     inkscape:current-layer="layer1"
     showgrid="false"
     fit-margin-top="0"
     fit-margin-left="0"
     fit-margin-right="0"
     fit-margin-bottom="0"
     units="mm"
     inkscape:window-maximized="1"
     inkscape:zoom="1.3266607"
     inkscape:cx="672.52059"
     inkscape:cy="-37.657597"
     inkscape:window-width="1280"
     inkscape:window-height="961"
     inkscape:window-x="1358"
     inkscape:window-y="-8" />
  <metadata
     id="metadata7">
    <rdf:rdf>
      <cc:work
         rdf:about="">
        <dc:format>image/svg+xml</dc:format>
        <dc:type
           rdf:resource="http://purl.org/dc/dcmitype/StillImage" />
        <dc:title />
      </cc:work>
    </rdf:rdf>
    <rdf:RDF>
      <cc:Work
         rdf:about="">
        <dc:format>image/svg+xml</dc:format>
        <dc:type
           rdf:resource="http://purl.org/dc/dcmitype/StillImage" />
      </cc:Work>
    </rdf:RDF>
  </metadata>
  <g
     inkscape:label="Calque 1"
     inkscape:groupmode="layer"
     id="layer1">
    <path
       style="fill:#ffffff;stroke:#ff0000;stroke-width:0.35405675;stroke-miterlimit:4;stroke-dasharray:none"
       id="bottom"
       d="m 21.259705,21.61404 38.308496,0 0,21.24214 37.777379,0 0,-21.24214 38.48553,0 0,21.24214 37.77738,0 0,-21.24214 38.48553,0 0,21.24214 37.77738,0 0,-21.24214 38.48554,0 0,21.24214 37.77738,0 0,-21.24214 38.48554,0 0,21.24214 37.77737,0 0,-21.24214 38.48554,0 0,21.24214 37.77737,0 0,-21.24214 38.3085,0 0,38.79909 -21.24467,0 0,38.268036 21.24467,0 0,38.976114 -21.24467,0 0,38.26803 21.24467,0 0,38.97611 -21.24467,0 0,38.26804 21.24467,0 0,38.9761 -21.24467,0 0,38.26804 21.24467,0 0,38.9761 -21.24467,0 0,38.26804 21.24467,0 0,38.79909 -38.3085,0 0,-21.24214 -37.77737,0 0,21.24214 -38.48554,0 0,-21.24214 -37.77737,0 0,21.24214 -38.48554,0 0,-21.24214 -37.77738,0 0,21.24214 -38.48554,0 0,-21.24214 -37.77738,0 0,21.24214 -38.48553,0 0,-21.24214 -37.77738,0 0,21.24214 -38.48553,0 0,-21.24214 -37.777379,0 0,21.24214 -38.308496,0 0,-38.79909 21.24467,0 0,-38.26804 -21.24467,0 0,-38.9761 21.24467,0 0,-38.26804 -21.24467,0 0,-38.9761 21.24467,0 0,-38.26804 -21.24467,0 0,-38.97611 21.24467,0 0,-38.26803 -21.24467,0 0,-38.976114 21.24467,0 0,-38.268036 -21.24467,0 0,-38.79909 z"
       inkscape:connector-curvature="0" />
    <path
       style="fill:#ffffff;stroke:#ff0000;stroke-width:0.35395148;stroke-miterlimit:4;stroke-dasharray:none"
       id="font"
       d="m 538.58248,468.07067 495.70902,0 0,45.46652 -21.2447,0 0,44.93578 21.2447,0 0,45.64344 -21.2447,0 0,44.93578 21.2447,0 0,45.46653 -37.95439,0 0,21.2295 -38.48555,0 0,-21.2295 -37.77739,0 0,21.2295 -38.48554,0 0,-21.2295 -37.77739,0 0,21.2295 -38.48554,0 0,-21.2295 -37.77739,0 0,21.2295 -38.48554,0 0,-21.2295 -37.77739,0 0,21.2295 -38.48554,0 0,-21.2295 -37.77739,0 0,21.2295 -38.48554,0 0,-21.2295 -37.95443,0 0,-45.46653 21.24468,0 0,-44.93578 -21.24468,0 0,-45.64344 21.24468,0 0,-44.93578 -21.24468,0 0,-45.46652 z"
       inkscape:connector-curvature="0" />
    <path
       style="fill:#ffffff;stroke:#ff0000;stroke-width:0.35395148;stroke-miterlimit:4;stroke-dasharray:none"
       id="back"
       d="m 21.259653,468.07067 495.709047,0 0,45.46652 -21.24468,0 0,44.93578 21.24468,0 0,45.64344 -21.24468,0 0,44.93578 21.24468,0 0,45.46653 -37.95443,0 0,21.2295 -38.48554,0 0,-21.2295 -37.77739,0 0,21.2295 -38.48554,0 0,-21.2295 -37.77739,0 0,21.2295 -38.48554,0 0,-21.2295 -37.77739,0 0,21.2295 -38.48554,0 0,-21.2295 -37.77739,0 0,21.2295 -38.48554,0 0,-21.2295 -37.777388,0 0,21.2295 -38.485543,0 0,-21.2295 -37.954426,0 0,-45.46653 21.244673,0 0,-44.93578 -21.244673,0 0,-45.64344 21.244673,0 0,-44.93578 -21.244673,0 0,-45.46652 z"
       inkscape:connector-curvature="0" />
    <path
       style="fill:#ffffff;stroke:#ff0000;stroke-width:0.35393044;stroke-miterlimit:4;stroke-dasharray:none"
       id="left_side"
       d="m 646.2459,737.362 339.87433,0 0,45.1127 21.24237,0 0,45.64344 -21.24237,0 0,44.93579 21.24237,0 0,45.64344 -21.24237,0 0,45.1127 -17.20292,0 0,21.2295 -38.97612,0 0,-21.2295 -38.26804,0 0,21.2295 -38.97613,0 0,-21.2295 -38.26804,0 0,21.2295 -38.97612,0 0,-21.2295 -38.26804,0 0,21.2295 -38.97613,0 0,-21.2295 -38.26804,0 0,21.2295 -38.97612,0 0,-21.2295 -17.20292,0 0,-45.1127 -21.24215,0 0,-45.64344 21.24215,0 0,-44.93579 -21.24215,0 0,-45.64344 21.24215,0 0,-45.1127 z"
       inkscape:connector-curvature="0" />
    <path
       style="fill:#ffffff;stroke:#ff0000;stroke-width:0.35393041;stroke-miterlimit:4;stroke-dasharray:none"
       id="right_side"
       d="m 138.84439,737.36201 339.87423,0 0,45.11269 21.24214,0 0,45.64344 -21.24214,0 0,44.93579 21.24214,0 0,45.64343 -21.24214,0 0,45.1127 -17.20292,0 0,21.22951 -38.97613,0 0,-21.22951 -38.26805,0 0,21.22951 -38.97611,0 0,-21.22951 -38.26805,0 0,21.22951 -38.97612,0 0,-21.22951 -38.26805,0 0,21.22951 -38.97611,0 0,-21.22951 -38.26796,0 0,21.22951 -38.97613,0 0,-21.22951 -17.202932,0 0,-45.1127 -21.242151,0 0,-45.64343 21.242151,0 0,-44.93579 -21.242151,0 0,-45.64344 21.242151,0 0,-45.11269 z"
       inkscape:connector-curvature="0" />
    <rect
       style="fill:none;fill-opacity:1;stroke:#ff0000;stroke-width:0.35487589;stroke-miterlimit:4;stroke-dasharray:none;stroke-opacity:1"
       id="rect4138"
       width="495.7081"
       height="424.84198"
       x="536.68347"
       y="23.668119" />
    <ellipse
       style="fill:none;fill-rule:evenodd;stroke:#ff0000;stroke-width:0.35519475;stroke-linecap:butt;stroke-linejoin:miter;stroke-miterlimit:4;stroke-dasharray:none;stroke-opacity:1"
       id="path3422-0-8-5"
       cx="270.0567"
       cy="234.23619"
       rx="26.397207"
       ry="26.397205" />
    <ellipse
       style="fill:none;fill-rule:evenodd;stroke:#ff0000;stroke-width:0.35403591;stroke-linecap:butt;stroke-linejoin:miter;stroke-miterlimit:4;stroke-dasharray:none;stroke-opacity:1"
       id="path3422-0-8-4"
       cx="794.85236"
       cy="896.02216"
       rx="13.110384"
       ry="13.110383" />
    <path
       inkscape:connector-curvature="0"
       id="path4157"
       d="m 297.75971,877.26324 c 0,5.76957 -4.64582,10.49035 -10.41556,10.49035 -5.76979,0 -10.49045,-4.72078 -10.49045,-10.49035 0,-5.69499 4.72066,-10.41567 10.49045,-10.41567 5.76974,0 10.41556,4.72068 10.41556,10.41567 z"
       style="fill:none;stroke:#ff0000;stroke-width:0.35382983;stroke-linecap:butt;stroke-linejoin:miter;stroke-miterlimit:4;stroke-dasharray:none;stroke-opacity:1" />
    <path
       inkscape:connector-curvature="0"
       id="path4159"
       d="m 297.75971,824.13418 c 0,5.76969 -4.64582,10.41551 -10.41556,10.41551 -5.76979,0 -10.49045,-4.64582 -10.49045,-10.41551 0,-5.76979 4.72066,-10.49051 10.49045,-10.49051 5.76974,0 10.41556,4.72072 10.41556,10.49051 z"
       style="fill:none;stroke:#ff0000;stroke-width:0.35382733;stroke-linecap:butt;stroke-linejoin:miter;stroke-miterlimit:4;stroke-dasharray:none;stroke-opacity:1" />
    <path
       inkscape:connector-curvature="0"
       id="path4161"
       d="m 270.9718,850.69879 c 0,5.76979 -4.72075,10.4905 -10.49047,10.4905 -5.7698,0 -10.41554,-4.72071 -10.41554,-10.4905 0,-5.76979 4.64574,-10.41552 10.41554,-10.41552 5.76972,0 10.49047,4.64573 10.49047,10.41552 z"
       style="fill:none;stroke:#ff0000;stroke-width:0.35382709;stroke-linecap:butt;stroke-linejoin:miter;stroke-miterlimit:4;stroke-dasharray:none;stroke-opacity:1" />
    <path
       inkscape:connector-curvature="0"
       id="path4163"
       d="m 324.1721,850.69879 c 0,5.76962 -4.66247,10.49019 -10.45263,10.49019 -5.79043,0 -10.45276,-4.72057 -10.45276,-10.49019 0,-5.76961 4.66233,-10.4152 10.45276,-10.4152 5.79016,0 10.45263,4.64559 10.45263,10.4152 z"
       style="fill:none;stroke:#ff0000;stroke-width:0.35445413;stroke-linecap:butt;stroke-linejoin:miter;stroke-miterlimit:4;stroke-dasharray:none;stroke-opacity:1" />
    <path
       inkscape:connector-curvature="0"
       id="path4167"
       d="m 241.43685,859.16284 -22.43576,-7.9543 22.21065,-8.4796 c -3.52664,4.8776 -3.37658,11.4813 0.22511,16.4339 z"
       style="fill:#000000;fill-opacity:1;fill-rule:evenodd;stroke:#000000;stroke-width:1.27565587px;stroke-linecap:butt;stroke-linejoin:round;stroke-miterlimit:4;stroke-dasharray:none;stroke-opacity:1" />
    <path
       inkscape:connector-curvature="0"
       id="path4171"
       d="m 279.03,805.05824 7.87874,-22.4372 8.55408,22.2121 c -4.87727,-3.5269 -11.55556,-3.3768 -16.43282,0.2252 z"
       style="fill:#000000;fill-opacity:1;fill-rule:evenodd;stroke:#000000;stroke-width:1.27565587px;stroke-linecap:butt;stroke-linejoin:round;stroke-miterlimit:4;stroke-dasharray:none;stroke-opacity:1" />
    <path
       inkscape:connector-curvature="0"
       id="path4175"
       d="m 295.68793,896.15794 -7.87875,22.43754 -8.55418,-22.21234 c 4.87737,3.5269 11.55566,3.3768 16.43293,-0.2253 z"
       style="fill:#000000;fill-opacity:1;fill-rule:evenodd;stroke:#000000;stroke-width:1.27565587px;stroke-linecap:butt;stroke-linejoin:round;stroke-miterlimit:4;stroke-dasharray:none;stroke-opacity:1" />
    <path
       inkscape:connector-curvature="0"
       id="path4179"
       d="m 332.98074,842.42884 22.28589,8.2544 -22.3609,8.1795 c 3.60176,-4.8776 3.60176,-11.4813 0.0752,-16.4339 z"
       style="fill:#000000;fill-opacity:1;fill-rule:evenodd;stroke:#000000;stroke-width:1.27565587px;stroke-linecap:butt;stroke-linejoin:round;stroke-miterlimit:4;stroke-dasharray:none;stroke-opacity:1" />
  </g>
</svg>
